<svg width="68" height="62" viewBox="0 0 68 62" fill="none" xmlns="http://www.w3.org/2000/svg">
<g filter="url(#filter0_d_16_95)">
<path d="M32.3635 40.6251C29.9222 41.361 28.4759 43.3847 28.4759 46.0468C28.4759 51.9338 36.0049 53.8276 38.4872 48.5683C40.5387 44.2288 36.7331 39.294 32.3635 40.6251ZM34.6611 43.1899C37.0203 43.9257 37.246 47.5618 34.9996 48.7198C32.9892 49.7586 30.7223 48.1354 30.8966 45.7871C31.0505 43.8283 32.8148 42.6055 34.6611 43.1899Z" fill="#FFC045"/>
<path d="M30.1213 8.13138C23.3925 8.7374 16.8687 11.1831 11.4631 15.1222C9.16538 16.7996 8.90895 17.1026 9.02178 17.9792C9.08332 18.5094 9.30899 18.78 9.77057 18.9423C10.2937 19.1263 10.6425 18.9964 11.5246 18.2713C19.2279 11.9298 29.9983 9.28931 39.9172 11.3238C44.8613 12.3302 49.5284 14.4513 53.8366 17.6437C54.3597 18.0333 55.0059 18.5743 55.2726 18.8449C57.0266 20.6846 55.7034 23.9203 53.2006 23.9203C52.38 23.9203 51.8979 23.6822 50.5337 22.6325C45.2306 18.5094 38.1324 16.3342 31.4035 16.7671C28.4289 16.9619 26.6954 17.3082 23.4848 18.3471C20.7563 19.2236 15.9763 21.9832 14.848 23.3359C12.1093 26.6257 13.7505 31.7768 17.8124 32.6426C19.3408 32.9672 20.5409 32.6426 22.2744 31.4414C28.1417 27.3616 35.3116 26.8421 41.5584 30.0454C43.6407 31.1059 44.2766 31.8634 44.2766 33.2811C44.2766 35.1099 43.0868 36.3653 41.3532 36.3653C40.7788 36.3653 40.5942 36.3003 39.4454 35.6835C34.2038 32.9023 28.6135 33.5624 24.2438 37.5015C23.0232 38.6054 22.8386 39.3196 23.6181 40.0338C24.2746 40.6507 24.808 40.5208 25.9158 39.4603C28.6853 36.8198 33.055 35.9324 36.7374 37.2526C37.0759 37.3825 37.8657 37.7504 38.4812 38.0751C40.2147 38.9841 41.4558 39.1897 42.8919 38.8001C46.3281 37.8478 47.9283 33.4434 45.9588 30.3267C45.4152 29.461 44.8305 28.9091 43.8048 28.3031C36.7784 24.1367 27.875 24.4397 21.2999 29.0714C20.8178 29.4069 20.2332 29.7748 19.987 29.8939C18.1714 30.7596 15.9456 29.1796 15.9661 27.0153C15.9866 25.8682 16.4892 25.1323 17.9663 24.0934C24.3977 19.5916 32.2959 18.1956 39.8864 20.1976C43.3124 21.1066 47.0154 22.9788 49.7028 25.154C53.4468 28.1949 58.5345 25.7275 58.5345 20.8902C58.5345 18.8449 57.837 17.5138 56.0111 16.0529C48.8104 10.3065 39.0864 7.31975 30.1213 8.13138Z" fill="#FFC045"/>
</g>
<defs>
<filter id="filter0_d_16_95" x="0" y="0" width="67.5345" height="61.6484" filterUnits="userSpaceOnUse" color-interpolation-filters="sRGB">
<feFlood flood-opacity="0" result="BackgroundImageFix"/>
<feColorMatrix in="SourceAlpha" type="matrix" values="0 0 0 0 0 0 0 0 0 0 0 0 0 0 0 0 0 0 127 0" result="hardAlpha"/>
<feOffset dy="1"/>
<feGaussianBlur stdDeviation="4.5"/>
<feComposite in2="hardAlpha" operator="out"/>
<feColorMatrix type="matrix" values="0 0 0 0 1 0 0 0 0 0.751464 0 0 0 0 0.269231 0 0 0 0.5 0"/>
<feBlend mode="normal" in2="BackgroundImageFix" result="effect1_dropShadow_16_95"/>
<feBlend mode="normal" in="SourceGraphic" in2="effect1_dropShadow_16_95" result="shape"/>
</filter>
</defs>
</svg>
