<svg width="57" height="80" viewBox="0 0 57 80" fill="none" xmlns="http://www.w3.org/2000/svg">
<g clip-path="url(#clip0_287_14)">
<g filter="url(#filter0_d_287_14)">
<path d="M21.845 9.32229L21.5002 9.63167V12.6094C21.5002 15.7935 21.4864 15.729 22.2311 16.1544C22.4518 16.2704 22.438 16.4767 22.1208 18.797C21.6381 22.2775 21.3899 22.8318 19.6799 24.2241C18.1077 25.5002 17.4182 26.2479 16.8941 27.176C15.9288 28.8905 15.9839 27.5757 16.0115 49.6576C16.0529 69.5352 16.0529 69.5739 16.3425 69.9219C17.101 70.8887 16.1081 70.8114 28.1198 70.8114C40.1315 70.8114 39.1386 70.8887 39.897 69.9219C40.1867 69.5739 40.1867 69.5352 40.228 49.6576C40.2556 27.5757 40.3108 28.8905 39.3454 27.176C38.8214 26.2479 38.1318 25.5002 36.5597 24.2241C34.8496 22.8318 34.6014 22.2775 34.1187 18.797C33.8015 16.4767 33.7878 16.2704 34.0084 16.1544C34.7531 15.729 34.7393 15.7935 34.7393 12.6094V9.63167L34.3945 9.32229L34.0636 9.00002H28.1198H22.176L21.845 9.32229ZM32.5328 12.6094V14.1563H28.1198H23.7067V12.6094V11.0625H28.1198H32.5328V12.6094ZM31.6226 16.6958C31.664 16.9665 31.8295 18.2041 31.995 19.4416C32.4914 23.2701 33.0706 24.3014 36.1184 26.6733C36.9458 27.3178 37.5526 28.2331 37.856 29.2901C38.0077 29.8315 38.0491 33.325 38.0491 49.374V68.8133H28.1198H18.1905V49.374C18.1905 33.325 18.2318 29.8315 18.3835 29.2901C18.6869 28.2331 19.2937 27.3178 20.1212 26.6733C23.1689 24.3014 23.7481 23.2701 24.2446 19.4416C24.4101 18.2041 24.5756 16.9665 24.6169 16.6958L24.6997 16.2189H28.1198H31.5399L31.6226 16.6958Z" fill="#FFC045"/>
</g>
</g>
<defs>
<filter id="filter0_d_287_14" x="6" y="-1" width="44.2395" height="81.8129" filterUnits="userSpaceOnUse" color-interpolation-filters="sRGB">
<feFlood flood-opacity="0" result="BackgroundImageFix"/>
<feColorMatrix in="SourceAlpha" type="matrix" values="0 0 0 0 0 0 0 0 0 0 0 0 0 0 0 0 0 0 127 0" result="hardAlpha"/>
<feOffset dy="1"/>
<feGaussianBlur stdDeviation="4.5"/>
<feComposite in2="hardAlpha" operator="out"/>
<feColorMatrix type="matrix" values="0 0 0 0 1 0 0 0 0 0.751464 0 0 0 0 0.269231 0 0 0 0.5 0"/>
<feBlend mode="normal" in2="BackgroundImageFix" result="effect1_dropShadow_287_14"/>
<feBlend mode="normal" in="SourceGraphic" in2="effect1_dropShadow_287_14" result="shape"/>
</filter>
<clipPath id="clip0_287_14">
<rect width="56.2395" height="79.8129" fill="white"/>
</clipPath>
</defs>
</svg>
