<svg width="58" height="45" viewBox="0 0 58 45" fill="none" xmlns="http://www.w3.org/2000/svg">
<g filter="url(#filter0_d_16_97)">
<rect x="8.17188" y="15.0245" width="0.834374" height="13.5593" fill="#FFC045" fill-opacity="0.94"/>
<circle cx="47.8298" cy="21.3578" r="1.92709" stroke="#FFC045"/>
<path d="M6.67538 3.20388C5.49226 3.62099 4.71004 4.35589 4.26026 5.47811L4.03537 6.05412L4.00603 20.9508C3.98648 30.2067 4.01581 36.0859 4.07448 36.4732C4.27981 37.8139 5.02293 38.8269 6.21582 39.4029L6.87093 39.7207L28.8221 39.7505C53.2276 39.7703 51.2915 39.8299 52.3671 39.105C52.9929 38.6779 53.472 38.0622 53.7751 37.3074L54 36.7413V21.3977V6.05412L53.7751 5.48804C53.3253 4.36582 52.4258 3.52168 51.3209 3.18402C50.4702 2.9258 7.39893 2.94567 6.67538 3.20388ZM50.9298 4.72334C51.4675 4.89217 51.9858 5.36887 52.2498 5.94487L52.4844 6.45136V21.3977V36.3441L52.2498 36.8506C51.9858 37.4266 51.4675 37.9033 50.9298 38.0721C50.3724 38.241 7.64338 38.231 7.07627 38.0622C6.54826 37.9033 5.82471 37.1684 5.66826 36.6321C5.49226 36.0362 5.49226 6.75923 5.66826 6.16336C5.81493 5.6668 6.53849 4.9021 7.0176 4.74321C7.51627 4.5843 50.4018 4.56445 50.9298 4.72334Z" fill="#FFC045"/>
<path d="M28.8223 39.2518C41.0321 39.2618 46.6382 39.2799 49.3301 39.2069C50.6917 39.17 51.2513 39.1094 51.5342 39.0321C51.7791 38.9651 51.7139 38.9437 52.085 38.6932V38.6923C52.6207 38.3266 53.0408 37.7943 53.3105 37.1239V37.1229L53.5 36.6454V6.15125L53.3105 5.67371C52.9171 4.69236 52.139 3.96534 51.1963 3.6698C51.1952 3.66966 51.1937 3.66897 51.1924 3.66882C51.1693 3.66615 51.1342 3.66254 51.085 3.65906C50.9863 3.65208 50.8471 3.64546 50.668 3.63855C50.3106 3.62477 49.8079 3.61228 49.1787 3.60046C47.921 3.57685 46.1678 3.55707 44.084 3.54187C39.917 3.51147 34.4324 3.4974 28.9512 3.49988C23.4696 3.50236 17.992 3.52142 13.8408 3.55554C11.765 3.57261 10.0221 3.59335 8.77637 3.61804C8.15314 3.6304 7.65692 3.64402 7.30664 3.65808C7.131 3.66513 6.99578 3.6716 6.90137 3.67859C6.85975 3.68167 6.82984 3.68604 6.80957 3.68835C5.77462 4.06138 5.1143 4.69181 4.72461 5.66394H4.72363L4.53418 6.14929L4.50586 20.952C4.49608 25.5791 4.49853 29.3614 4.51074 32.035C4.51685 33.3719 4.52547 34.4307 4.53613 35.1786C4.54146 35.5525 4.54745 35.8473 4.55371 36.0594C4.55685 36.1657 4.56031 36.25 4.56348 36.3114C4.56631 36.3663 4.56785 36.3914 4.56836 36.3973C4.73803 37.5052 5.31366 38.3401 6.24316 38.8544L6.43359 38.953L6.98633 39.2216L28.8232 39.2509L28.8223 39.2518ZM52.9844 36.454L52.9385 36.5546L52.7031 37.0604C52.3871 37.7486 51.7671 38.3327 51.0791 38.5487L51.0752 38.5507L50.9766 38.5712C50.9479 38.5752 50.9256 38.5772 50.917 38.578C50.8792 38.5813 50.8332 38.5842 50.7822 38.5868C50.6791 38.592 50.5383 38.5968 50.3652 38.6014C50.018 38.6107 49.5271 38.619 48.915 38.6268C47.6903 38.6424 45.9717 38.6558 43.9248 38.6659C39.8306 38.6861 34.4186 38.6955 29.0068 38.6942C23.5951 38.693 18.1823 38.6811 14.0869 38.6591C12.0394 38.648 10.3194 38.6342 9.09375 38.618C8.48132 38.61 7.99029 38.6011 7.64258 38.5917C7.46913 38.587 7.32805 38.5823 7.22461 38.577C7.17354 38.5744 7.1277 38.5716 7.08984 38.5682C7.07192 38.5667 6.9998 38.5616 6.93359 38.5419L6.93262 38.5409C6.55313 38.4267 6.16944 38.1367 5.87695 37.8397C5.58413 37.5423 5.30002 37.1545 5.18848 36.7733C5.17228 36.7183 5.1657 36.6632 5.16309 36.6405C5.15925 36.6072 5.15615 36.5691 5.15332 36.5292C5.14762 36.4485 5.14258 36.3433 5.1377 36.2177C5.12788 35.9654 5.11862 35.6158 5.11035 35.1854C5.0938 34.3239 5.08034 33.1271 5.06934 31.7079C5.04732 28.8683 5.03613 25.1322 5.03613 21.3973C5.03613 17.6626 5.04732 13.9272 5.06934 11.0878C5.08034 9.66827 5.0938 8.47085 5.11035 7.60925C5.11862 7.17914 5.12788 6.83016 5.1377 6.578C5.14258 6.45247 5.14762 6.34708 5.15332 6.26648C5.15614 6.22661 5.15925 6.18845 5.16309 6.15515C5.16571 6.13244 5.17218 6.07654 5.18848 6.02136C5.2951 5.66064 5.57658 5.27625 5.85547 4.9823C6.13273 4.69008 6.50282 4.38701 6.86035 4.26843L6.86621 4.26648C6.93801 4.24369 7.01722 4.2392 7.0293 4.23816C7.0662 4.235 7.11107 4.23183 7.16113 4.22937C7.2627 4.22439 7.40216 4.22015 7.57422 4.2157C7.91918 4.20678 8.40826 4.19804 9.01953 4.19031C10.2428 4.17484 11.9629 4.16113 14.0127 4.15027C18.1126 4.12854 23.5377 4.11662 28.9629 4.11414C34.388 4.11165 39.8144 4.11859 43.918 4.1366C45.9696 4.1456 47.692 4.15738 48.918 4.17175C49.5303 4.17893 50.0207 4.18754 50.3672 4.19617C50.5398 4.20046 50.6799 4.20496 50.7822 4.20984C50.833 4.21226 50.8788 4.21453 50.916 4.21765C50.931 4.21891 51.006 4.22447 51.0742 4.245L51.0791 4.24597C51.7675 4.4621 52.3883 5.04748 52.7041 5.73621L52.7031 5.73718L52.9385 6.24109L52.9844 6.3407V36.454Z" stroke="#FFC045" stroke-opacity="0.94"/>
</g>
<defs>
<filter id="filter0_d_16_97" x="0" y="-1" width="58" height="45.7606" filterUnits="userSpaceOnUse" color-interpolation-filters="sRGB">
<feFlood flood-opacity="0" result="BackgroundImageFix"/>
<feColorMatrix in="SourceAlpha" type="matrix" values="0 0 0 0 0 0 0 0 0 0 0 0 0 0 0 0 0 0 127 0" result="hardAlpha"/>
<feOffset dy="1"/>
<feGaussianBlur stdDeviation="2"/>
<feComposite in2="hardAlpha" operator="out"/>
<feColorMatrix type="matrix" values="0 0 0 0 0 0 0 0 0 0 0 0 0 0 0 0 0 0 0.25 0"/>
<feBlend mode="normal" in2="BackgroundImageFix" result="effect1_dropShadow_16_97"/>
<feBlend mode="normal" in="SourceGraphic" in2="effect1_dropShadow_16_97" result="shape"/>
</filter>
</defs>
</svg>
