<svg width="60" height="60" viewBox="0 0 60 60" fill="none" xmlns="http://www.w3.org/2000/svg">
<g filter="url(#filter0_d_13_32)">
<path d="M18.8438 4.27841C18.668 4.37216 18.4922 4.57138 18.457 4.712C18.4219 4.85263 18.4102 8.79012 18.4219 13.4659C18.4688 22.9933 18.4219 22.419 19.3594 24.3175C20.9649 27.5284 24.832 30.9737 30.0352 33.8097C31.4883 34.6065 31.5469 34.6065 33.2344 33.6456C39.082 30.2823 42.75 26.7315 44.0156 23.1808C44.3789 22.1378 44.4141 21.3878 44.4141 13.0792L44.4258 4.61825L44.1211 4.34872L43.8164 4.09091H31.4883C20.8125 4.10263 19.1133 4.12606 18.8438 4.27841ZM42.6563 13.7589L42.6445 21.5636L42.3633 22.4659C41.3906 25.5479 37.0664 29.6612 32.0977 32.2628L31.4414 32.6143L30.1641 31.8643C24.4805 28.5597 21 25.0089 20.3203 21.7979C20.1914 21.1768 20.1563 19.4776 20.1563 13.4659V5.90731L31.418 5.93075L42.668 5.95419L42.6563 13.7589Z" fill="#FFC045"/>
<path d="M34.1719 17.087L29.8125 21.4464L28.2774 19.8995C26.7539 18.3761 26.7305 18.3526 26.3086 18.4229C25.7813 18.505 25.5586 18.7745 25.5469 19.3253C25.5469 19.9464 29.1445 23.544 29.7774 23.544C30.1758 23.544 30.4805 23.2628 34.957 18.7862C38.9414 14.8136 39.7266 13.9698 39.7266 13.7003C39.7266 13.2667 39.3985 12.8917 38.9297 12.8097C38.543 12.7276 38.4727 12.7979 34.1719 17.087Z" fill="#FFC045"/>
<path d="M51.1641 35.9776C50.7891 36.1066 49.582 36.7862 48.4688 37.4776C43.7227 40.4776 42.3516 41.38 42.1523 41.6144C41.7422 42.1065 42.1758 42.9972 42.8203 42.9972C43.043 42.9972 46.4766 40.8878 49.9805 38.6026C51.5625 37.5714 51.6328 37.548 52.7344 37.548C53.7422 37.548 55.0195 38.0284 55.0195 38.4034C55.0195 38.462 54.5156 38.9073 53.9063 39.3761C53.2969 39.8448 51.082 41.5558 48.9844 43.1847C45.0586 46.2198 44.7539 46.419 44.0625 46.5714C43.4297 46.7003 40.0078 47.7901 36.5039 48.9737L33.3399 50.0519L28.1016 49.9698C22.9219 49.8878 22.8633 49.8878 22.1016 50.1456C20.8359 50.5675 20.0625 51.1651 18.8906 52.6417C17.6836 54.1651 17.6484 54.2472 17.8594 54.7628C18.2109 55.6183 18.9961 55.419 19.8633 54.2706C20.7774 53.0519 21.4453 52.3722 22.0899 52.044L22.6758 51.7276L28.1367 51.7628L33.6094 51.8097L38.2148 50.2862C40.7578 49.4425 43.1484 48.669 43.5352 48.5519C45.8438 47.9073 45.6563 48.0128 48.6445 45.6808C49.7695 44.8136 51.0586 43.8058 51.5156 43.4542C54.5742 41.1339 56.918 39.3058 57.0469 39.1417C57.2461 38.8956 57.2227 38.298 56.9883 37.9581C55.7813 36.1417 53.2148 35.2745 51.1641 35.9776Z" fill="#FFC045"/>
<path d="M24.1406 37.2547C22.5703 37.4657 21.1289 38.0282 20.0391 38.8602C19.1016 39.5751 11.6953 46.6063 5.77735 52.4071C4.00782 54.1297 3.87892 54.3524 4.27735 54.9149C4.47657 55.1962 5.06251 55.3719 5.32032 55.2196C5.48438 55.1258 6.3047 54.3524 9.84376 50.9188C15.0469 45.868 19.6055 41.5555 20.8594 40.4774C22.6055 38.9891 24.2461 38.7313 28.2891 39.2938C30.2578 39.5633 30.8672 39.5985 33.9141 39.5985C37.2305 39.5985 37.3477 39.6102 37.8516 39.8563C39.0352 40.454 39.0703 41.8368 37.9219 42.6922C37.6055 42.9266 37.4531 42.9383 32.0977 42.9618C27.8203 42.9735 26.543 43.0087 26.4024 43.1258C25.9102 43.536 26.0156 44.3915 26.5899 44.6376C26.8242 44.7313 28.4649 44.7547 32.3555 44.7313L37.793 44.6962L38.5899 44.3094C40.7344 43.2547 41.1797 40.3368 39.4336 38.8016C38.4141 37.8993 38.4961 37.911 33.8672 37.829C30.1992 37.7704 29.4609 37.7235 27.6563 37.454C25.5234 37.1258 25.207 37.1141 24.1406 37.2547Z" fill="#FFC045"/>
</g>
<defs>
<filter id="filter0_d_13_32" x="-5.90909" y="-5.90909" width="73.0907" height="71.1996" filterUnits="userSpaceOnUse" color-interpolation-filters="sRGB">
<feFlood flood-opacity="0" result="BackgroundImageFix"/>
<feColorMatrix in="SourceAlpha" type="matrix" values="0 0 0 0 0 0 0 0 0 0 0 0 0 0 0 0 0 0 127 0" result="hardAlpha"/>
<feOffset dy="1"/>
<feGaussianBlur stdDeviation="4.5"/>
<feComposite in2="hardAlpha" operator="out"/>
<feColorMatrix type="matrix" values="0 0 0 0 1 0 0 0 0 0.751464 0 0 0 0 0.269231 0 0 0 0.5 0"/>
<feBlend mode="normal" in2="BackgroundImageFix" result="effect1_dropShadow_13_32"/>
<feBlend mode="normal" in="SourceGraphic" in2="effect1_dropShadow_13_32" result="shape"/>
</filter>
</defs>
</svg>
