<svg width="53" height="76" viewBox="0 0 53 76" fill="none" xmlns="http://www.w3.org/2000/svg">
<g filter="url(#filter0_d_16_65)">
<path d="M15.5505 8.18262C12.8579 8.7545 10.3321 11.0301 9.41474 13.7227C9.09306 14.652 9.06923 14.8783 9.02158 16.9037C8.95009 20.0609 8.92626 20.0252 11.1661 20.0252C13.0604 20.0371 13.9778 20.5137 14.6927 21.86L15.0143 22.4676V25.8988V29.3301L14.3233 29.6041C13.263 30.0449 12.4171 30.8313 11.8929 31.9154L11.4401 32.8209V47.1774V61.5457L11.8214 62.344C12.3099 63.3924 13.1677 64.2502 14.2161 64.7387L15.0143 65.1199H27.3573H39.6884L40.5938 64.6672C41.6423 64.1549 42.4048 63.3924 42.9171 62.344L43.2507 61.6649V53.9803V46.2957L42.8575 45.4856C42.2142 44.1869 41.6661 43.7461 38.4374 41.959C34.1126 39.5762 34.3628 39.9455 34.2675 35.6922L34.196 32.7137L33.8028 31.9154C33.0522 30.3785 31.6106 29.4016 29.8831 29.2348L29.1206 29.1633L29.1563 25.2793L29.1921 21.3953L29.5257 20.5613C29.7044 20.0967 29.9546 19.5963 30.0737 19.4414L30.2882 19.1674L30.5026 19.918C31.5034 23.516 34.0411 26.7805 36.6503 27.8408C37.5677 28.2102 38.1157 28.2102 38.4851 27.8289C38.8901 27.4238 38.8663 27.1379 38.2587 25.8512C37.2579 23.7186 36.8767 21.6932 36.8767 18.4406V16.3318H39.4739C42.9528 16.3318 42.5954 16.8084 42.5954 12.1381V8.48048L42.2856 8.2422C41.964 7.992 41.9401 7.992 29.1444 8.00391C18.6958 8.01583 16.1819 8.05157 15.5505 8.18262ZM40.6892 12.1619V14.4256H37.8417C33.1952 14.4256 31.3843 15.0332 29.3708 17.2611C27.8577 18.9291 27.2263 20.7639 27.2263 23.5041V25.1483H22.9253C20.4114 25.1483 18.5409 25.1959 18.4218 25.2674C17.8618 25.5652 17.8618 26.6375 18.4218 26.9354C18.5409 27.0068 20.4114 27.0545 22.9253 27.0545H27.2263V28.1268V29.199H22.1032H16.9802V26.1133C16.9802 24.4215 16.9206 22.7535 16.861 22.3961C16.3964 19.9656 14.4425 18.25 12.0001 18.1428L10.8802 18.0951L10.9397 16.5225C11.0351 13.675 12.1788 11.7688 14.4425 10.6488C15.9794 9.88634 15.4194 9.92208 28.6321 9.91016L40.6892 9.89825V12.1619ZM34.9466 17.6067C34.8036 19.6797 35.1729 22.968 35.7329 24.5406C36.0188 25.327 35.9712 25.3627 35.3755 24.7908C33.9935 23.4445 32.814 21.1928 31.9442 18.2619L31.7655 17.6424L32.2183 17.3445C32.9688 16.8799 34.7321 16.2723 34.9704 16.4033C35.0061 16.4152 34.9942 16.9633 34.9466 17.6067ZM30.455 31.2721C32.0038 31.8201 32.3493 32.6184 32.3493 35.5611C32.3612 40.4936 32.6352 40.9582 37.2698 43.5197C40.5462 45.3307 40.6772 45.426 41.0942 46.26L41.404 46.8795V53.9326C41.404 61.7244 41.4278 61.4147 40.6296 62.3082C40.4032 62.5584 39.9386 62.8801 39.6169 63.0231L39.0212 63.2733L27.2024 63.2494C15.9198 63.2137 15.3479 63.2018 14.9548 62.9873C14.371 62.6776 13.9063 62.2248 13.6085 61.6649L13.3464 61.1883V47.1893V33.1902L13.6085 32.7137C13.9421 32.0942 14.4186 31.6533 15.0739 31.3555C15.5981 31.1172 15.8126 31.1053 22.8181 31.1172C28.3819 31.1172 30.1214 31.1529 30.455 31.2721Z" fill="#FFC045"/>
<path d="M17.8618 36.5381C17.2304 36.7645 16.5393 37.4317 16.2177 38.1227C15.9675 38.6707 15.9675 38.7541 15.9675 48.0828C15.9675 58.7102 15.9079 58.043 16.9206 59.0199C17.7308 59.8063 17.8261 59.8182 23.7593 59.8182H29.0729L29.6806 59.5322C30.4073 59.1986 31.0745 58.4361 31.2651 57.757C31.3724 57.3877 31.3962 54.707 31.3724 47.8445C31.3366 38.4563 31.3366 38.4324 31.0745 37.9559C30.7409 37.3363 30.2643 36.8955 29.6091 36.5977C28.8942 36.276 18.7434 36.2283 17.8618 36.5381ZM28.93 38.3967C29.5018 38.6945 29.478 38.3848 29.478 48.0828C29.478 57.7809 29.5018 57.4711 28.93 57.769C28.5845 57.9596 18.7434 57.9715 18.386 57.7809C17.8142 57.4711 17.8142 57.4473 17.8142 48.0233C17.8142 38.6111 17.8022 38.7184 18.3741 38.3848C18.6958 38.2061 28.5964 38.2061 28.93 38.3967Z" fill="#FFC045"/>
</g>
<defs>
<filter id="filter0_d_16_65" x="-1" y="-2" width="54.2507" height="77.1199" filterUnits="userSpaceOnUse" color-interpolation-filters="sRGB">
<feFlood flood-opacity="0" result="BackgroundImageFix"/>
<feColorMatrix in="SourceAlpha" type="matrix" values="0 0 0 0 0 0 0 0 0 0 0 0 0 0 0 0 0 0 127 0" result="hardAlpha"/>
<feOffset dy="1"/>
<feGaussianBlur stdDeviation="4.5"/>
<feComposite in2="hardAlpha" operator="out"/>
<feColorMatrix type="matrix" values="0 0 0 0 1 0 0 0 0 0.751464 0 0 0 0 0.269231 0 0 0 0.5 0"/>
<feBlend mode="normal" in2="BackgroundImageFix" result="effect1_dropShadow_16_65"/>
<feBlend mode="normal" in="SourceGraphic" in2="effect1_dropShadow_16_65" result="shape"/>
</filter>
</defs>
</svg>
