<svg viewBox="0 0 327 349" xmlns="http://www.w3.org/2000/svg">
  <path 
    d="M10.1289 191.07C10.6719 192.141 11.273 193.237 11.9375 194.355C14.1825 198.134 19.0839 201.314 26.4072 203.987C33.6732 206.64 43.0402 208.696 53.8369 210.421C75.4524 213.875 102.408 215.951 129.157 218.957C155.822 221.953 182.244 225.871 202.487 233.027C222.64 240.151 237.293 250.717 239.255 267.391C240.036 274.031 238.948 279.417 236.314 283.796C233.692 288.156 229.625 291.371 224.705 293.844C214.939 298.751 201.362 300.935 187.759 303.171C174.016 305.43 160.176 307.748 149.386 312.799C138.697 317.802 131.183 325.393 129.757 338.231C129.665 339.055 128.923 339.648 128.1 339.557C127.277 339.465 126.683 338.722 126.774 337.899C128.348 323.738 136.772 315.391 148.114 310.082C159.355 304.821 173.64 302.451 187.272 300.21C201.044 297.946 214.092 295.818 223.357 291.163C227.952 288.854 231.503 285.974 233.744 282.249C235.974 278.542 236.994 273.849 236.275 267.74C234.531 252.914 221.462 242.917 201.487 235.855C181.602 228.826 155.489 224.935 128.822 221.938C102.239 218.951 75.0646 216.85 53.3633 213.383C42.502 211.647 32.9129 209.556 25.3779 206.806C17.9005 204.076 12.1548 200.595 9.3584 195.888C8.47379 194.399 7.68955 192.938 7 191.507"
    
    fill="none"
    stroke="url(#grad)"
    stroke-width="2.5"
    stroke-linecap="round"
    vector-effect="non-scaling-stroke"
  />

  <defs>
    <linearGradient id="grad" x1="0" y1="0" x2="327" y2="349">
      <stop offset="0%" stop-color="#FFD166"/>
      <stop offset="100%" stop-color="#FFB72C"/>
    </linearGradient>
  </defs>
</svg>