<svg width="8" height="8" viewBox="0 0 8 8" fill="none" xmlns="http://www.w3.org/2000/svg">
<path d="M1.43795 0.00741768C1.19446 0.0420899 1.1143 0.097867 0.686295 0.518456C0.326348 0.872715 0.234092 0.979747 0.149399 1.13803C-0.0759464 1.55711 -0.0456987 2.18875 0.235605 2.93044C0.836021 4.5133 2.16087 6.04038 3.72316 6.95091C5.05104 7.72575 6.12785 7.90816 6.72222 7.45742C6.83867 7.36999 7.51773 6.67051 7.57823 6.57403C7.74308 6.31927 7.74006 5.98913 7.57218 5.73889C7.47085 5.58814 6.37135 4.51481 6.26094 4.45601C6.02047 4.3324 5.75278 4.34446 5.52441 4.48767C5.48207 4.51481 5.29755 4.68364 5.11304 4.86454C4.93005 5.04544 4.77427 5.19317 4.76671 5.19317C4.74705 5.19317 4.42945 5.01529 4.32812 4.94595C3.75341 4.56154 3.13182 3.94045 2.7507 3.37364C2.65391 3.23043 2.50569 2.96511 2.50569 2.93496C2.50569 2.92591 2.65088 2.77366 2.82783 2.59728C3.26642 2.16162 3.32843 2.05911 3.32994 1.78625C3.32994 1.4742 3.29818 1.42747 2.59039 0.721967C2.0792 0.212436 2.00207 0.143092 1.9083 0.094852C1.7495 0.0134478 1.59675 -0.0151944 1.43795 0.00741768ZM1.68901 0.423484C1.75858 0.455142 1.86293 0.55162 2.31816 1.00688C2.91555 1.60385 2.93672 1.63249 2.93672 1.78625C2.93521 1.92645 2.88984 1.98826 2.49662 2.37417C2.10794 2.75557 2.0913 2.77818 2.09281 2.90782C2.09432 3.10681 2.42402 3.65403 2.81422 4.10778C3.32238 4.69721 3.89709 5.17961 4.43398 5.46754C4.8514 5.69215 4.83174 5.69818 5.34141 5.19317C5.73463 4.80274 5.77698 4.77259 5.92066 4.77108C6.06282 4.77108 6.09761 4.79821 6.69651 5.3997C7.29239 5.99817 7.30751 6.01626 7.30751 6.1655C7.30751 6.32078 7.27575 6.36449 6.86136 6.77905C6.35622 7.28557 6.30934 7.31119 5.91612 7.31119C5.00566 7.31119 3.61881 6.59514 2.49964 5.54743C1.30335 4.42888 0.386843 2.79476 0.388356 1.78625C0.389868 1.42747 0.450363 1.31893 0.899541 0.86367C1.39409 0.364692 1.46971 0.322483 1.68901 0.423484Z" fill="#FFC045"/>
</svg>
