<svg width="8" height="10" viewBox="0 0 8 10" fill="none" xmlns="http://www.w3.org/2000/svg">
<path d="M3.67033 0.00291634C1.60565 0.0787344 -0.0696543 1.73194 0.00223011 3.61999C0.0341788 4.47988 0.665164 5.66708 1.97306 7.33137C2.40637 7.88429 3.35684 8.96608 3.72824 9.32853L3.85004 9.44873L3.97185 9.32853C4.36921 8.9402 5.29372 7.88244 5.76896 7.2759C7.05689 5.63009 7.66591 4.47433 7.69786 3.61999C7.75976 1.98158 6.47183 0.452277 4.72863 0.0916786C4.38718 0.021409 4.01179 -0.0100279 3.67033 0.00291634ZM4.39118 0.424539C6.07846 0.677881 7.35441 2.09438 7.27853 3.63109C7.23261 4.58898 6.23621 6.19041 4.39118 8.27448C4.00979 8.70719 3.87001 8.85698 3.85004 8.85698C3.83008 8.85698 3.66634 8.67946 3.253 8.20975C1.38601 6.0924 0.415566 4.49467 0.415566 3.54232C0.415566 2.26266 1.30414 1.06992 2.60804 0.600214C2.91555 0.489262 3.23703 0.422689 3.62041 0.389403C3.76019 0.376459 4.21546 0.3968 4.39118 0.424539Z" fill="#FFC045"/>
<path d="M3.5705 1.26796C2.08488 1.42515 1.17435 2.93966 1.80334 4.20268C2.54215 5.68205 4.74461 5.84478 5.71904 4.49115C6.78333 3.01178 5.48542 1.06455 3.5705 1.26796ZM4.05971 1.6563C5.60523 1.83013 6.23421 3.60168 5.09604 4.57252C3.98782 5.51932 2.2007 4.90168 2.03496 3.51661C1.90517 2.44407 2.90357 1.525 4.05971 1.6563Z" fill="#FFC045"/>
</svg>
