<svg width="11" height="11" viewBox="0 0 11 11" fill="none" xmlns="http://www.w3.org/2000/svg">
<path d="M5.5 0.5C8.26151 0.5 10.5 2.73849 10.5 5.5C10.5 8.26151 8.26151 10.5 5.5 10.5C2.73849 10.5 0.5 8.26151 0.5 5.5C0.5 2.73849 2.73849 0.5 5.5 0.5ZM5.5 0.599609C4.20044 0.599609 2.95408 1.11623 2.03516 2.03516C1.11623 2.95408 0.599609 4.20044 0.599609 5.5C0.599609 6.79956 1.11623 8.04592 2.03516 8.96484C2.95408 9.88377 4.20044 10.4004 5.5 10.4004C6.79956 10.4004 8.04592 9.88377 8.96484 8.96484C9.88377 8.04592 10.4004 6.79956 10.4004 5.5C10.4004 4.20044 9.88377 2.95408 8.96484 2.03516C8.04592 1.11623 6.79956 0.599609 5.5 0.599609ZM5.5 2.7002C5.51222 2.70021 5.52407 2.70477 5.5332 2.71289C5.54147 2.7203 5.54586 2.73035 5.54785 2.74121L5.5498 2.76367V5.47949L5.69629 5.62598L7.18457 7.11328V7.11426C7.19343 7.12316 7.19873 7.13492 7.19922 7.14746C7.19961 7.16016 7.19492 7.17309 7.18652 7.18262C7.17819 7.19195 7.16675 7.19797 7.1543 7.19922L7.11914 7.18848L7.09961 7.1709L5.46484 5.53516C5.45818 5.52843 5.45418 5.51994 5.45215 5.51074L5.4502 5.47949V2.75C5.4502 2.73674 5.45547 2.72422 5.46484 2.71484C5.46942 2.71027 5.47463 2.70659 5.48047 2.7041L5.5 2.7002Z" stroke="white" stroke-opacity="0.56"/>
</svg>
