<svg width="52" height="52" viewBox="0 0 52 52" fill="none" xmlns="http://www.w3.org/2000/svg">
<g filter="url(#filter0_d_1_83)">
<path fill-rule="evenodd" clip-rule="evenodd" d="M26 42C34.8365 42 42 34.8365 42 26C42 17.1634 34.8365 10 26 10C17.1634 10 10 17.1634 10 26C10 34.8365 17.1634 42 26 42ZM35.5258 27.1998H30.6488C30.428 28.0578 29.976 28.823 29.363 29.425L31.8019 33.6491C33.8094 32.124 35.1982 29.8267 35.5258 27.1998ZM29.7243 34.8509L27.2851 30.6261C26.8762 30.7394 26.4451 30.8 26 30.8C25.5549 30.8 25.1238 30.7394 24.7147 30.6259L22.2755 34.8507C23.4208 35.3333 24.6792 35.6 26 35.6C27.3208 35.6 28.5792 35.3333 29.7243 34.8509ZM20.1981 33.649L22.6369 29.4248C22.024 28.8229 21.572 28.0578 21.3512 27.1998H16.4742C16.8018 29.8267 18.1906 32.124 20.1981 33.649ZM35.5258 24.7998H30.6488C30.4278 23.9419 29.9758 23.1768 29.3629 22.575L31.8018 18.3508C33.8093 19.8758 35.1981 22.173 35.5258 24.7998ZM29.7243 17.1492C28.579 16.6667 27.3206 16.4 26 16.4C24.6794 16.4 23.4208 16.6667 22.2756 17.1492L24.7149 21.374C25.1238 21.2606 25.5549 21.2 26 21.2C26.4451 21.2 26.876 21.2606 27.2851 21.374L29.7243 17.1492ZM22.637 22.5751L20.1982 18.3509C18.1907 19.8759 16.8019 22.1731 16.4743 24.7998H21.3513C21.5721 23.9419 22.0241 23.177 22.637 22.5751Z" fill="url(#paint0_radial_1_83)" fill-opacity="0.94" shape-rendering="crispEdges"/>
<path d="M26 10.5C34.5603 10.5 41.5 17.4396 41.5 26C41.5 34.5603 34.5603 41.5 26 41.5C17.4396 41.5 10.5 34.5603 10.5 26C10.5 17.4396 17.4396 10.5 26 10.5ZM27.1514 30.1445C26.7855 30.2458 26.3994 30.2998 26 30.2998C25.6006 30.2998 25.2146 30.246 24.8486 30.1445L24.4756 30.041L24.2812 30.376L21.8428 34.6006L21.5596 35.0918L22.0811 35.3115C23.2867 35.8195 24.6113 36.0996 26 36.0996C27.3885 36.0996 28.7126 35.8192 29.918 35.3115L30.4404 35.0918L30.1572 34.6006L27.7178 30.376L27.5244 30.041L27.1514 30.1445ZM15.9785 27.2617C16.3233 30.0266 17.7846 32.4433 19.8955 34.0469L20.3477 34.3906L20.6309 33.8994L23.0703 29.6748L23.2637 29.3398L22.9873 29.0684C22.4377 28.5286 22.0325 27.8428 21.835 27.0752L21.7393 26.7002H15.9082L15.9785 27.2617ZM30.165 27.0752C29.9675 27.8428 29.5623 28.5286 29.0127 29.0684L28.7363 29.3398L28.9297 29.6748L31.3691 33.8994L31.6523 34.3906L32.1045 34.0469C34.2154 32.4431 35.6767 30.0266 36.0215 27.2617L36.0918 26.7002H30.2607L30.165 27.0752ZM19.8955 17.9531C17.7847 19.5568 16.3233 21.9735 15.9785 24.7383L15.9082 25.2998H21.7393L21.8359 24.9248C22.0335 24.1572 22.4377 23.4714 22.9873 22.9316L23.2637 22.6602L23.0703 22.3252L20.6309 18.1006L20.3477 17.6094L19.8955 17.9531ZM31.3691 18.1006L28.9297 22.3252L28.7363 22.6602L29.0127 22.9316C29.5623 23.4713 29.9673 24.1571 30.165 24.9248L30.2617 25.2998H36.0918L36.0215 24.7383C35.6766 21.9735 34.2153 19.5567 32.1045 17.9531L31.6523 17.6094L31.3691 18.1006ZM26 15.9004C24.6115 15.9004 23.2866 16.1806 22.0811 16.6885L21.5596 16.9082L21.8428 17.3994L24.2822 21.624L24.4756 21.959L24.8486 21.8555C25.2144 21.7541 25.6005 21.7002 26 21.7002C26.3994 21.7002 26.7854 21.7541 27.1514 21.8555L27.5244 21.959L27.7178 21.624L30.1572 17.3994L30.4404 16.9082L29.918 16.6885C28.7125 16.1807 27.3884 15.9004 26 15.9004Z" stroke="#FFC045" stroke-opacity="0.24" shape-rendering="crispEdges"/>
</g>
<defs>
<filter id="filter0_d_1_83" x="0" y="0" width="52" height="52" filterUnits="userSpaceOnUse" color-interpolation-filters="sRGB">
<feFlood flood-opacity="0" result="BackgroundImageFix"/>
<feColorMatrix in="SourceAlpha" type="matrix" values="0 0 0 0 0 0 0 0 0 0 0 0 0 0 0 0 0 0 127 0" result="hardAlpha"/>
<feOffset/>
<feGaussianBlur stdDeviation="5"/>
<feComposite in2="hardAlpha" operator="out"/>
<feColorMatrix type="matrix" values="0 0 0 0 1 0 0 0 0 0.751464 0 0 0 0 0.269231 0 0 0 0.24 0"/>
<feBlend mode="normal" in2="BackgroundImageFix" result="effect1_dropShadow_1_83"/>
<feBlend mode="normal" in="SourceGraphic" in2="effect1_dropShadow_1_83" result="shape"/>
</filter>
<radialGradient id="paint0_radial_1_83" cx="0" cy="0" r="1" gradientUnits="userSpaceOnUse" gradientTransform="translate(26 26) rotate(90) scale(16)">
<stop offset="0.653746" stop-color="#AE8530" stop-opacity="0.85"/>
<stop offset="0.653846"/>
<stop offset="1"/>
</radialGradient>
</defs>
</svg>
