<svg width="327" height="349" viewBox="0 0 327 349" fill="none" xmlns="http://www.w3.org/2000/svg"><g filter="url(#filter0_d_60_74)"><path d="M10.129 191.07a55.95 55.95 0 0 0 1.807 3.285c2.245 3.78 7.147 6.96 14.47 9.632 7.266 2.653 16.633 4.71 27.43 6.434 21.615 3.455 48.57 5.53 75.32 8.537 26.665 2.996 53.087 6.914 73.33 14.07 20.153 7.124 34.806 17.69 36.768 34.364.78 6.64-.307 12.027-2.94 16.406-2.623 4.36-6.69 7.575-11.61 10.048-9.766 4.907-23.343 7.09-36.946 9.327-13.744 2.26-27.584 4.578-38.374 9.63-10.69 5.002-18.203 12.593-19.63 25.43a1.502 1.502 0 0 1-2.982-.33c1.574-14.162 9.998-22.51 21.34-27.818 11.24-5.26 25.526-7.63 39.158-9.872 13.772-2.264 26.82-4.392 36.085-9.047 4.595-2.31 8.146-5.19 10.387-8.914 2.23-3.708 3.25-8.4 2.53-14.51-1.743-14.826-14.812-24.823-34.787-31.885-19.885-7.03-45.998-10.92-72.665-13.917-26.583-2.987-53.757-5.088-75.459-8.555-10.86-1.736-20.45-3.827-27.985-6.577-7.478-2.73-13.223-6.21-16.02-10.918A57.2 57.2 0 0 1 7 191.508h.007c1.07 0 2.114-.152 3.122-.438zm295.814-96.383a52.395 52.395 0 0 1-4.432 3.096c-9.994 6.27-24.098 11.02-40.66 14.834-33.14 7.63-76.714 11.628-118.35 16.185-41.75 4.568-81.484 9.694-107.276 19.516-6.82 2.597-12.577 5.492-17.118 8.734a18.172 18.172 0 0 0-1.895-2.333c4.883-3.515 10.966-6.548 17.945-9.205 26.224-9.987 66.374-15.138 108.018-19.695 41.757-4.57 85.085-8.547 118.002-16.126 16.154-3.72 29.66-8.28 39.196-14.118a14.344 14.344 0 0 0 6.57-.889zm8.34-32.02c1.948 2.754 3.106 5.88 3.32 9.424-.434-3.51-1.606-6.73-3.32-9.423zM33.575 7a1.5 1.5 0 0 1 1.55 1.45c.238 7.085 4.396 12.602 11.987 16.956 7.633 4.378 18.547 7.453 31.782 9.612 26.45 4.316 61.576 4.888 96.796 5.375 35.142.487 70.383.89 96.83 4.915 13.215 2.012 24.39 4.948 32.3 9.344a38.47 38.47 0 0 1 2.76 1.687c-2.078-1.095-4.374-1.703-6.787-1.703-.847 0-1.68.075-2.493.22-6.947-2.871-15.85-5.003-26.23-6.583-26.197-3.987-61.195-4.393-96.42-4.88-35.148-.487-70.522-1.056-97.24-5.415-13.35-2.179-24.688-5.325-32.79-9.972C37.474 23.336 32.41 17.02 32.125 8.55A1.5 1.5 0 0 1 33.576 7z" fill="url(#paint0_linear_60_74)" style="" shape-rendering="crispEdges"/></g><defs><filter id="filter0_d_60_74" x="0" y="0" width="326.604" height="348.566" filterUnits="userSpaceOnUse" color-interpolation-filters="sRGB"><feFlood flood-opacity="0" result="BackgroundImageFix"/><feColorMatrix in="SourceAlpha" type="matrix" values="0 0 0 0 0 0 0 0 0 0 0 0 0 0 0 0 0 0 127 0" result="hardAlpha"/><feOffset dx="1" dy="1"/><feGaussianBlur stdDeviation="4"/><feComposite in2="hardAlpha" operator="out"/><feColorMatrix type="matrix" values="0 0 0 0 1 0 0 0 0 0.751464 0 0 0 0 0.269231 0 0 0 0.33 0"/><feBlend mode="normal" in2="BackgroundImageFix" result="effect1_dropShadow_60_74"/><feBlend mode="normal" in="SourceGraphic" in2="effect1_dropShadow_60_74" result="shape"/></filter><linearGradient id="paint0_linear_60_74" x1="187.077" y1="505.728" x2="340.772" y2="-70.7358" gradientUnits="userSpaceOnUse"><stop offset="0.365385" stop-color="#FFB72C"/><stop offset="1" stop-color="#9D711D"/></linearGradient></defs></svg>