<svg width="15" height="8" viewBox="0 0 15 8" fill="none" xmlns="http://www.w3.org/2000/svg">
<path d="M0.14642 3.32843C-0.0488429 3.52369 -0.0488429 3.84028 0.14642 4.03554L3.3284 7.21752C3.52366 7.41278 3.84024 7.41278 4.03551 7.21752C4.23077 7.02226 4.23077 6.70567 4.03551 6.51041L1.20708 3.68198L4.03551 0.853557C4.23077 0.658295 4.23077 0.341712 4.03551 0.14645C3.84024 -0.0488122 3.52366 -0.0488122 3.3284 0.14645L0.14642 3.32843ZM7.61108 3.68198V3.18198L0.499973 3.18198V3.68198V4.18198L7.61108 4.18198V3.68198Z" fill="#FFC045" fill-opacity="0.94"/>
<path d="M14.2436 4.03554C14.4388 3.84028 14.4388 3.52369 14.2436 3.32843L11.0616 0.14645C10.8663 -0.0488122 10.5497 -0.0488122 10.3545 0.14645C10.1592 0.341712 10.1592 0.658295 10.3545 0.853557L13.1829 3.68198L10.3545 6.51041C10.1592 6.70567 10.1592 7.02226 10.3545 7.21752C10.5497 7.41278 10.8663 7.41278 11.0616 7.21752L14.2436 4.03554ZM6 3.68198V4.18198H13.89V3.68198V3.18198H6V3.68198Z" fill="#FFC045" fill-opacity="0.94"/>
</svg>
