<svg width="21" height="17" viewBox="0 0 21 17" fill="none" xmlns="http://www.w3.org/2000/svg">
<path d="M7.48151 0.0366707C6.91614 0.130558 6.42536 0.560873 6.2369 1.12419C6.16623 1.33544 6.15445 1.46062 6.15445 2.14913V2.93152H4.05C1.71391 2.93152 1.71391 2.93152 1.19565 3.18971C0.66168 3.45963 0.214092 4.03469 0.0648961 4.65278C-0.0332592 5.03615 -0.0136282 14.5305 0.0806009 14.8395C0.316174 15.5906 0.810876 16.107 1.56864 16.3808L1.85525 16.4865H10.0218H18.1883L18.4631 16.4004C19.1973 16.1696 19.7509 15.6141 19.9865 14.8825L20.0729 14.6087V9.71876V4.82882L19.9826 4.53542C19.7941 3.9408 19.4093 3.46746 18.895 3.19753C18.3846 2.93152 18.3768 2.93152 16.0328 2.93152H13.9284V2.17651C13.9284 1.67578 13.9087 1.35891 13.8734 1.22982C13.7124 0.627376 13.2491 0.181414 12.6484 0.0562305C12.3461 -0.00636101 7.84665 -0.0220089 7.48151 0.0366707ZM12.6406 0.725175C12.8643 0.799502 13.0881 1.01075 13.1981 1.24547C13.2687 1.40586 13.2805 1.51539 13.2923 2.17651L13.308 2.93152H10.0414H6.77479L6.7905 2.17651C6.8062 1.18287 6.93184 0.909037 7.44225 0.721263C7.6739 0.6352 12.3893 0.639112 12.6406 0.725175ZM4.5447 9.70312V15.8449L3.22157 15.8332C1.96518 15.8214 1.88273 15.8175 1.68642 15.7354C1.23883 15.5554 0.909032 15.2151 0.736278 14.7613C0.630271 14.4679 0.61064 4.99703 0.716647 4.6919C0.912958 4.14031 1.40373 3.71 1.96126 3.60046C2.05549 3.5809 2.6719 3.56526 3.33936 3.56134L4.5447 3.55743V9.70312ZM14.9099 9.6992V15.841H10.0414H5.1729V9.6992V3.55743H10.0414H14.9099V9.6992ZM18.0901 3.59655C18.5966 3.69044 19.0364 4.02295 19.2719 4.48457L19.4054 4.74667V9.69529V14.6478L19.2837 14.9021C19.1463 15.1877 18.895 15.4654 18.6359 15.618C18.2943 15.8175 18.1019 15.841 16.767 15.841H15.5381V9.6992V3.55743H16.712C17.3559 3.55743 17.9763 3.57699 18.0901 3.59655Z" fill="#FFC045"/>
<path d="M7.12031 6.4914C7.11246 6.50313 7.10853 6.64787 7.1046 6.81218L7.10068 7.11731H10.0414H12.9821L12.9743 6.79653L12.9664 6.47966L10.0493 6.47575C8.44344 6.47184 7.12423 6.47966 7.12031 6.4914Z" fill="#FFC045"/>
<path d="M6.15445 9.70705V10.0317H10.0414H13.9283V9.70705V9.38627H10.0414H6.15445V9.70705Z" fill="#FFC045"/>
<path d="M7.10853 12.6018L7.11638 12.9265H10.0414H12.9664L12.9743 12.6018L12.9821 12.281H10.0414H7.10068L7.10853 12.6018Z" fill="#FFC045"/>
</svg>
