<svg width="21" height="20" viewBox="0 0 21 20" fill="none" xmlns="http://www.w3.org/2000/svg">
<path d="M3.68272 0.0684338C1.83809 0.402998 0.394655 1.84988 0.0719536 3.69216C-0.0239845 4.23528 -0.0239845 15.7582 0.0719536 16.3013C0.394655 18.1566 1.84681 19.6035 3.70888 19.925C4.25398 20.0206 15.8189 20.0206 16.364 19.925C18.2261 19.6035 19.6782 18.1566 20.0009 16.3013C20.0969 15.7582 20.0969 4.23528 20.0009 3.69216C19.6782 1.83685 18.2261 0.389963 16.364 0.0684338C15.8538 -0.0228119 4.17549 -0.0228119 3.68272 0.0684338ZM16.5951 0.646317C18.0211 1.05909 19.0372 2.08016 19.4209 3.48794L19.5212 3.84858V9.97501C19.5212 16.801 19.5387 16.3578 19.2203 17.0834C18.7363 18.1914 17.8031 18.9952 16.5951 19.3472L16.2506 19.4471L10.2545 19.4601C5.94598 19.4688 4.16241 19.4601 3.90948 19.4254C2.36575 19.2038 1.09239 18.0741 0.651943 16.536L0.551644 16.1884L0.538562 10.1749C0.52984 4.91744 0.534201 4.10928 0.595253 3.77037C0.874345 2.16706 2.15207 0.885292 3.77865 0.585487C4.0185 0.542038 5.35291 0.533348 10.1673 0.537693L16.2506 0.546383L16.5951 0.646317Z" fill="#FFC045"/>
<path d="M2.87161 2.86237C2.77567 2.96665 2.78003 3.1448 2.87597 3.2317C3.00679 3.34901 17.0966 3.34467 17.2013 3.22735C17.2972 3.12307 17.2929 2.94493 17.1969 2.85803C17.0661 2.74071 2.97627 2.74506 2.87161 2.86237Z" fill="#FFC045"/>
<path d="M2.87161 6.33832C2.77567 6.4426 2.78003 6.62075 2.87597 6.70765C3.00679 6.82496 17.0966 6.82062 17.2013 6.7033C17.2972 6.59902 17.2929 6.42088 17.1969 6.33398C17.0661 6.21666 2.97627 6.22101 2.87161 6.33832Z" fill="#FFC045"/>
<path d="M2.87161 9.81428C2.77567 9.91856 2.78003 10.0967 2.87597 10.1836C3.00679 10.3009 17.0966 10.2966 17.2013 10.1793C17.2972 10.075 17.2929 9.89683 17.1969 9.80993C17.0661 9.69262 2.97627 9.69696 2.87161 9.81428Z" fill="#FFC045"/>
<path d="M2.87161 13.2903C2.77567 13.3946 2.78003 13.5728 2.87597 13.6597C3.00679 13.777 10.1193 13.7726 10.224 13.6553C10.3199 13.551 10.3155 13.3729 10.2196 13.286C10.0888 13.1687 2.97627 13.173 2.87161 13.2903Z" fill="#FFC045"/>
<path d="M16.678 13.7248C16.5123 13.8682 15.7622 14.5329 15.0078 15.2108C14.2534 15.8886 13.6036 16.4665 13.5643 16.5012C13.4989 16.5534 13.4161 16.4621 12.7881 15.6453C12.0381 14.6763 11.9552 14.6068 11.7633 14.8023C11.6281 14.9327 11.6805 15.0717 12.0555 15.5497C12.2517 15.8017 12.4523 16.0624 12.5003 16.1275C12.8317 16.5751 13.3201 17.1703 13.3855 17.2008C13.512 17.2703 13.6036 17.2008 14.6153 16.2927C17.585 13.6205 17.3757 13.829 17.2754 13.6509C17.2274 13.5597 17.101 13.4728 17.0181 13.4728C16.9919 13.4728 16.8393 13.5857 16.678 13.7248Z" fill="#FFC045"/>
<path d="M2.87161 16.7663C2.77567 16.8706 2.78003 17.0487 2.87597 17.1356C3.00679 17.2529 10.1193 17.2486 10.224 17.1313C10.3199 17.027 10.3155 16.8489 10.2196 16.762C10.0888 16.6446 2.97627 16.649 2.87161 16.7663Z" fill="#FFC045"/>
</svg>
