<svg width="20" height="20" viewBox="0 0 20 20" fill="none" xmlns="http://www.w3.org/2000/svg">
<g clip-path="url(#clip0_146_10)">
<path d="M10.145 0.013443C7.34424 0.165787 4.95362 1.35329 3.18799 3.46657C0.26612 6.96266 0.270026 12.2009 3.20362 15.6931C7.30127 20.5759 14.813 20.24 18.4536 15.0095C19.8911 12.9431 20.4497 10.3259 19.9888 7.82204C19.1255 3.14626 14.856 -0.240463 10.145 0.013443ZM11.7466 0.907974C17.0239 1.63454 20.4419 6.87282 18.9771 11.9744C17.7114 16.3611 13.3403 19.0291 8.85596 18.1502C3.99268 17.1931 0.871588 12.2791 2.07862 7.46657C3.16456 3.13454 7.34424 0.298599 11.7466 0.907974Z" fill="#E1C045"/>
<path d="M10.4146 3.34546C10.3677 3.36499 10.2935 3.4314 10.2466 3.48999L10.1646 3.59546V7.08765V10.5837L10.2778 10.697L10.3911 10.8103H13.0552C14.8052 10.8103 15.7427 10.7947 15.7935 10.7712C16.0122 10.6501 16.0435 10.3142 15.8521 10.1228L15.7192 9.98999H13.3521H10.9849V6.78686V3.58374L10.8794 3.46655C10.7622 3.33765 10.5591 3.28686 10.4146 3.34546Z" fill="#E1C045"/>
</g>
<defs>
<clipPath id="clip0_146_10">
<rect width="20" height="20" fill="white"/>
</clipPath>
</defs>
</svg>
